<?xml version="1.0" standalone="yes"?>

<svg version="1.1" viewBox="0.0 0.0 128.0 128.0" fill="none" stroke="none" stroke-linecap="square" stroke-miterlimit="10" xmlns="http://www.w3.org/2000/svg" xmlns:xlink="http://www.w3.org/1999/xlink"><clipPath id="p.0"><path d="m0 0l128.0 0l0 128.0l-128.0 0l0 -128.0z" clip-rule="nonzero"></path></clipPath><g clip-path="url(#p.0)"><path fill="#0b3c61" d="m0 0l128.0 0l0 128.0l-128.0 0z" fill-rule="nonzero"></path><path fill="#000000" fill-opacity="0.0" d="m-4.07874 -4.1916013l149.95274 0l0 113.00788l-149.95274 0z" fill-rule="nonzero"></path><path fill="#ffffff" d="m36.389904 111.78089q-3.65625 0 -6.921877 -1.109375q-3.265625 -1.09375 -5.84375 -3.40625l5.46875 -8.734375q1.15625 1.0625 2.640625 1.59375q1.4843769 0.53125 3.015627 0.53125q2.5 0 4.375 -1.78125q1.875 -1.78125 1.875 -4.5625l0 -51.64062l12.859375 0l0 50.687496q0 4.03125 -1.34375 7.4375q-1.34375 3.40625 -3.75 5.84375q-2.390625 2.453125 -5.5625 3.796875q-3.171875 1.34375 -6.8125 1.34375zm4.609375 -76.125l0 -12.765625l12.859375 0l0 12.765625l-12.859375 0zm20.92862 49.437496l27.937496 -33.406246l-26.890621 0l0 -9.015625l40.42187 0l0 7.859375l-27.84375 33.406246l28.328125 0l0 9.03125l-41.95312 0l0 -7.875z" fill-rule="nonzero"></path></g></svg>

