<?xml version="1.0" encoding="UTF-8" standalone="no"?>
<!-- Created with Inkscape (http://www.inkscape.org/) -->

<svg
   xmlns:dc="http://purl.org/dc/elements/1.1/"
   xmlns:cc="http://creativecommons.org/ns#"
   xmlns:rdf="http://www.w3.org/1999/02/22-rdf-syntax-ns#"
   xmlns:svg="http://www.w3.org/2000/svg"
   xmlns="http://www.w3.org/2000/svg"
   xmlns:sodipodi="http://sodipodi.sourceforge.net/DTD/sodipodi-0.dtd"
   xmlns:inkscape="http://www.inkscape.org/namespaces/inkscape"
   id="svg2"
   version="1.1"
   inkscape:version="0.48.5 r10040"
   width="557.5"
   height="212.50125"
   xml:space="preserve"
   sodipodi:docname="dropbox-white.svg"><metadata
     id="metadata8"><rdf:RDF><cc:Work
         rdf:about=""><dc:format>image/svg+xml</dc:format><dc:type
           rdf:resource="http://purl.org/dc/dcmitype/StillImage" /><dc:title /></cc:Work></rdf:RDF></metadata><defs
     id="defs6"><clipPath
       clipPathUnits="userSpaceOnUse"
       id="clipPath38"><path
         d="m 0,170.001 446,0 L 446,0 0,0 0,170.001 z"
         id="path40" /></clipPath></defs><sodipodi:namedview
     pagecolor="#ffffff"
     bordercolor="#666666"
     borderopacity="1"
     objecttolerance="10"
     gridtolerance="10"
     guidetolerance="10"
     inkscape:pageopacity="0"
     inkscape:pageshadow="2"
     inkscape:window-width="1440"
     inkscape:window-height="851"
     id="namedview4"
     showgrid="false"
     inkscape:zoom="1.3266972"
     inkscape:cx="223.64421"
     inkscape:cy="117.59166"
     inkscape:window-x="0"
     inkscape:window-y="0"
     inkscape:window-maximized="1"
     inkscape:current-layer="g10" /><g
     id="g10"
     inkscape:groupmode="layer"
     inkscape:label="dropbox-logos_dropbox-logotype-white"
     transform="matrix(1.25,0,0,-1.25,0,212.50125)"><g
       id="g14"
       transform="translate(76.1162,131.3945)"><path
         d="M 0,0 -29.63,-19.346 -9.143,-35.752 20.732,-17.305 0,0 z"
         style="fill:#ffffff;fill-opacity:1;fill-rule:nonzero;stroke:none"
         id="path16" /></g><g
       id="g18"
       transform="translate(46.4863,79.2363)"><path
         d="M 0,0 29.63,-19.346 50.362,-2.041 20.487,16.406 0,0 z"
         style="fill:#ffffff;fill-opacity:1;fill-rule:nonzero;stroke:none"
         id="path20" /></g><g
       id="g22"
       transform="translate(96.8486,77.1953)"><path
         d="M 0,0 20.733,-17.305 50.362,2.041 29.875,18.447 0,0 z"
         style="fill:#ffffff;fill-opacity:1;fill-rule:nonzero;stroke:none"
         id="path24" /></g><g
       id="g26"
       transform="translate(147.2109,112.0488)"><path
         d="M 0,0 -29.629,19.346 -50.362,2.041 -20.487,-16.406 0,0 z"
         style="fill:#ffffff;fill-opacity:1;fill-rule:nonzero;stroke:none"
         id="path28" /></g><g
       id="g30"
       transform="translate(96.9092,73.4727)"><path
         d="m 0,0 -20.793,-17.254 -8.897,5.809 0,-6.512 29.69,-17.807 29.691,17.807 0,6.512 -8.896,-5.809 L 0,0 z"
         style="fill:#ffffff;fill-opacity:1;fill-rule:nonzero;stroke:none"
         id="path32" /></g><g
       id="g34"><g
         id="g36"
         clip-path="url(#clipPath38)"><g
           id="g42"
           transform="translate(173.7266,103.0508)"><path
             d="m 0,0 1.955,0 c 4.619,0 10.961,-0.547 10.961,-16.562 0,-17.032 -6.419,-17.581 -10.961,-17.581 L 0,-34.143 0,0 z m -11.43,-43.126 13.699,0 c 3.992,0 9.627,0 14.248,3.595 5.636,4.296 8.533,13.046 8.533,22.813 C 25.05,8.908 8.844,8.986 0.859,8.986 l -12.289,0 0,-52.112 z"
             style="fill:#ffffff;fill-opacity:1;fill-rule:nonzero;stroke:none"
             id="path44" /></g><g
           id="g46"
           transform="translate(202.7119,98.4414)"><path
             d="m 0,0 0,-38.517 10.723,0 0,16.641 c 0,2.97 0,11.876 7.905,11.876 0.393,0 0.861,0 1.799,-0.156 l 0,10.468 c -0.546,0.157 -1.092,0.237 -1.878,0.237 -6.261,0 -8.14,-6.565 -9.079,-9.846 L 9.47,0 0,0 z"
             style="fill:#ffffff;fill-opacity:1;fill-rule:nonzero;stroke:none"
             id="path48" /></g><g
           id="g50"
           transform="translate(240.333,91.8008)"><path
             d="m 0,0 c 3.29,0 4.541,-2.656 4.541,-12.578 0,-10.315 -1.409,-12.58 -4.541,-12.58 -3.209,0 -4.617,2.346 -4.617,12.58 0,9.452 1.096,12.578 4.54,12.578 L 0,0 z m 0,7.502 c -11.506,0 -15.732,-8.049 -15.732,-20.08 0,-12.423 4.538,-20.078 15.655,-20.078 11.272,0 15.734,7.732 15.734,20.078 0,12.031 -4.226,20.08 -15.657,20.08"
             style="fill:#ffffff;fill-opacity:1;fill-rule:nonzero;stroke:none"
             id="path52" /></g><g
           id="g54"
           transform="translate(269.7393,82.9727)"><path
             d="m 0,0 c 0,3.438 0,8.905 4.853,8.905 4.149,0 4.461,-5.389 4.461,-12.186 0,-8.127 -0.389,-12.892 -4.775,-12.892 C 0,-16.173 0,-12.891 0,-7.344 L 0,0 z m -10.568,15.469 0,-51.565 10.568,0 0,15.86 c 1.174,-1.25 3.131,-3.358 7.358,-3.358 12.289,0 13.074,14.844 13.074,20.313 0,6.484 -1.252,12.501 -5.011,16.328 -1.877,1.875 -4.775,2.971 -7.358,2.971 -5.245,0 -7.359,-3.829 -8.69,-6.33 l 0,5.781 -9.941,0 z"
             style="fill:#ffffff;fill-opacity:1;fill-rule:nonzero;stroke:none"
             id="path56" /></g><g
           id="g58"
           transform="translate(303.9316,84.8477)"><path
             d="M 0,0 C 0,1.953 0,3.906 1.255,5.392 2.037,6.406 3.289,7.03 4.698,7.03 7.751,7.03 9.395,4.453 9.395,-5.703 9.395,-15.627 7.909,-18.281 4.541,-18.281 0,-18.281 0,-13.283 0,-8.906 L 0,0 z m -10.568,27.189 0,-52.112 6.341,0 c 0.861,2.735 1.253,3.515 2.037,5.001 0.937,-1.953 2.739,-5.781 8.924,-5.781 2.036,0 4.149,0.39 6.262,1.482 7.046,3.672 7.516,15.237 7.516,18.83 0,9.297 -2.975,19.534 -12.449,19.534 C 3.445,14.143 1.334,11.641 0,10 l 0,17.189 -10.568,0 z"
             style="fill:#ffffff;fill-opacity:1;fill-rule:nonzero;stroke:none"
             id="path60" /></g><g
           id="g62"
           transform="translate(342.8721,91.8008)"><path
             d="m 0,0 c 3.285,0 4.539,-2.656 4.539,-12.578 0,-10.315 -1.408,-12.58 -4.539,-12.58 -3.211,0 -4.622,2.346 -4.622,12.58 C -4.622,-3.126 -3.524,0 -0.079,0 L 0,0 z m 0,7.502 c -11.509,0 -15.736,-8.049 -15.736,-20.08 0,-12.423 4.542,-20.078 15.657,-20.078 11.272,0 15.734,7.732 15.734,20.078 0,12.031 -4.228,20.08 -15.655,20.08"
             style="fill:#ffffff;fill-opacity:1;fill-rule:nonzero;stroke:none"
             id="path64" /></g><g
           id="g66"
           transform="translate(358.7646,98.4414)"><path
             d="m 0,0 9.943,-18.829 -11.428,-19.688 9.313,0 6.498,11.562 5.636,-11.562 11.664,0 L 20.118,-16.953 30.059,0 20.746,0 15.813,-8.905 11.665,0 0,0 z"
             style="fill:#ffffff;fill-opacity:1;fill-rule:nonzero;stroke:none"
             id="path68" /></g></g></g></g></svg>