<?xml version="1.0" standalone="yes"?>

<svg version="1.1" viewBox="0.0 0.0 187.0 187.0" fill="none" stroke="none" stroke-linecap="square" stroke-miterlimit="10" xmlns="http://www.w3.org/2000/svg" xmlns:xlink="http://www.w3.org/1999/xlink"><clipPath id="p.0"><path d="m0 0l187.0 0l0 187.0l-187.0 0l0 -187.0z" clip-rule="nonzero"></path></clipPath><g clip-path="url(#p.0)"><path fill="#000000" fill-opacity="0.0" d="m0 0l187.54593 0l0 187.54593l-187.54593 0z" fill-rule="nonzero"></path><path fill="#000000" fill-opacity="0.1961" d="m0 -0.0131233595l47.24811 0.0040157484l140.24394 140.24394l0.0040130615 47.248108z" fill-rule="nonzero"></path><path fill="#ffffff" d="m44.23511 30.801785q0.90597916 0.90597916 1.8451042 1.1600971q0.9391289 0.25411415 1.845108 0.05524254q0.91703033 -0.18782616 1.7567177 -0.7623501q0.8617859 -0.5745239 1.590992 -1.3037281l4.806114 -4.806116l0.9391289 0.93912506l-4.806118 4.806118q-0.97227097 0.97227097 -2.055027 1.6130848q-1.0717087 0.6518669 -2.2097092 0.83969116q-1.1380005 0.18782425 -2.2980995 -0.19887543q-1.1490479 -0.3756485 -2.2428513 -1.4694557q-1.1490517 -1.1490479 -1.5026054 -2.3201923q-0.35354996 -1.1711464 -0.15467834 -2.3201942q0.20992279 -1.1380005 0.8507385 -2.1986618q0.6629143 -1.0606594 1.5799408 -1.9776878l4.806118 -4.806116l0.9280777 0.9280777l-4.806118 4.806116q-0.7513008 0.7513008 -1.3258247 1.6130867q-0.5524254 0.8617859 -0.7513008 1.767767q-0.19887543 0.90598106 0.055244446 1.8230095q0.26516342 0.9280777 1.1490479 1.8119621zm10.976391 12.545284l-0.90597916 -0.90597916l3.9111862 -3.9111824q1.2484856 -1.2484856 1.4473572 -2.1765633q0.19887543 -0.9280777 -0.56347656 -1.6904297q-0.4087944 -0.4087944 -0.97227097 -0.66291046q-0.541378 -0.25411606 -1.1600952 -0.3425064q-0.60766983 -0.07733917 -1.2484856 0.033145905q-0.618721 0.11048508 -1.1932449 0.39774704l-4.2868347 4.2868347l-0.90597916 -0.90597916l7.004776 -7.004778l0.82864 0.8286419l-1.5909882 1.5909882q0.59661865 -0.15467834 1.2153397 -0.15467834q0.64081573 0 1.2595329 0.15467834q0.6187172 0.15468216 1.1600952 0.47509003q0.56347656 0.32040787 1.0385666 0.7954941q0.5855713 0.5855713 0.77339554 1.1932411q0.18782425 0.60766983 0.033145905 1.2484856q-0.14363098 0.6297684 -0.60766983 1.2926826q-0.4529915 0.6739578 -1.1380005 1.3589706l-4.0990105 4.0990067zm4.522461 4.7876244q-0.7181549 -0.7181549 -1.0385628 -1.6351852q-0.3093605 -0.9280777 -0.26516724 -1.8782501q0.044193268 -0.95017624 0.43089294 -1.845108q0.40879822 -0.8949318 1.1269531 -1.6130867q0.74025345 -0.74025345 1.6462326 -1.160099q0.90597916 -0.41984177 1.8230095 -0.49718475q0.9280777 -0.066287994 1.800911 0.23202133q0.87283325 0.29830933 1.5688934 0.9943695q0.88388824 0.88388443 1.1048584 2.0329323q0.23201752 1.1380005 -0.022102356 2.2097092l4.2757874 -4.2757874l0.905983 0.90597916l-8.628914 8.628914q-0.3756485 0.3756485 -0.055244446 0.69605637l-0.80654144 0.80654526q-0.26516342 -0.17677689 -0.39774704 -0.3093605q-0.3425064 -0.3425026 -0.36460114 -0.7623482q-0.011051178 -0.40879822 0.25411606 -0.67396164l0.74024963 -0.74025345q-1.115902 0.25411606 -2.231804 -0.044193268q-1.0938072 -0.29830933 -1.8672028 -1.0717087zm0.9943695 -0.6187172q0.35354996 0.35355377 0.8617859 0.59661865q0.5192795 0.25411987 1.082756 0.35355377q0.5745239 0.08839035 1.1269531 0.022098541q0.56347656 -0.07733917 0.98332214 -0.38669968l2.1544647 -2.1544647q0.22097015 -0.5082321 0.2651596 -1.0827599q0.06629181 -0.5745239 -0.022094727 -1.1490479q-0.088386536 -0.5745239 -0.32040405 -1.0717087q-0.22097015 -0.5082321 -0.5855789 -0.87283325q-0.56346893 -0.56347656 -1.2705765 -0.7844467q-0.70710754 -0.22097015 -1.4363136 -0.15467834q-0.7181549 0.07733917 -1.4031639 0.4087944q-0.685009 0.33145523 -1.2263908 0.87283325q-0.56347275 0.56347656 -0.8838806 1.2816315q-0.3093605 0.70710754 -0.35355377 1.4363136q-0.022098541 0.7292023 0.22097015 1.4363098q0.26516342 0.70710754 0.80654526 1.2484856zm7.3899536 9.00304q-0.762352 -0.7623482 -1.1269531 -1.701477q-0.35355377 -0.9280777 -0.33145905 -1.9003487q0.044197083 -0.97227097 0.43089294 -1.8893013q0.39775085 -0.9280777 1.1601028 -1.6904259q0.7292023 -0.7292023 1.6462326 -1.115902q0.91703033 -0.38669968 1.8672028 -0.40879822q0.9722748 -0.022094727 1.8892975 0.32040787q0.9280777 0.35355377 1.701477 1.1269531q0.762352 0.7623482 1.1159058 1.6904259q0.35355377 0.9280777 0.3093567 1.8782539q-0.044197083 0.9501724 -0.4419403 1.8561554q-0.3756485 0.90597916 -1.0938034 1.6241341q-0.11048889 0.11048508 -0.23202515 0.20992279q-0.11048126 0.08839035 -0.16572571 0.12153244l-5.9772644 -5.9772606q-0.5192795 0.60766983 -0.7733917 1.30373q-0.25411987 0.69605637 -0.26516724 1.3921165q-0.011047363 0.69605637 0.23201752 1.3368721q0.26516724 0.64081573 0.77339935 1.1490479q0.35355377 0.35355377 0.77339935 0.59662247q0.4419403 0.2430687 0.87283325 0.36460114q0.45298767 0.121536255 0.905983 0.11048508q0.46403503 -0.022094727 0.8617859 -0.17677689l0.5855713 1.0054169q-0.5524292 0.22097397 -1.1711502 0.2430687q-0.59661865 0.022098541 -1.2374344 -0.1325798q-0.6187134 -0.15468216 -1.2153397 -0.50823593q-0.59661865 -0.33145523 -1.0938034 -0.82864zm6.573883 -1.4252625q0.53032684 -0.59662247 0.77339935 -1.2816315q0.24306488 -0.685009 0.23201752 -1.3589706q0 -0.685009 -0.2762146 -1.3368721q-0.26516724 -0.64081573 -0.77339935 -1.1490479q-0.5082321 -0.50823593 -1.1600952 -0.7844467q-0.64081573 -0.26516724 -1.3258286 -0.26516724q-0.6739578 -0.011047363 -1.3589706 0.25411606q-0.6739578 0.25411606 -1.2595291 0.77339935l5.1486206 5.1486206zm7.9315033 3.26902q-0.9612198 -0.8949318 -2.13237 -1.0938034q-1.1600952 -0.20992279 -2.2980957 0.35354996l-4.3531265 4.3531265l-0.90597534 -0.90597916l7.004776 -7.004776l0.8617859 0.8617859l-1.6793823 1.6793785q1.082756 -0.3756523 2.1544647 -0.2762146q1.093811 0.09943771 1.7788162 0.7844467q0.121536255 0.121536255 0.23201752 0.23202133q0.11048889 0.11048508 0.16573334 0.18782425l-0.8286438 0.82864zm2.7705078 5.488449q0.8617859 -0.8617859 2.0108337 -1.4142113q1.1490555 -0.5524292 2.3975372 -0.6518631q1.2595367 -0.08839035 2.5190659 0.33145523q1.2705841 0.43089294 2.3422928 1.5026016q1.2816315 1.2816277 1.6020355 2.7510872q0.33145905 1.4805069 -0.15467834 2.850525l-1.2153397 -0.28726196q0.24307251 -0.70710754 0.24307251 -1.3479233q0 -0.64081573 -0.1767807 -1.2153397q-0.16572571 -0.5855713 -0.4861374 -1.082756q-0.3093567 -0.4861374 -0.7070999 -0.88388824q-0.8507385 -0.8507347 -1.8672104 -1.1600952q-1.0164642 -0.3093567 -2.0329285 -0.19887161q-1.0054169 0.12153244 -1.9445419 0.59662247q-0.91703033 0.4750824 -1.6462326 1.2042923q-0.7954941 0.7954941 -1.2595367 1.7898636q-0.4419403 0.9943695 -0.53032684 2.0329285q-0.06629181 1.0385666 0.25411224 2.021881q0.32041168 0.98332214 1.082756 1.7456741q0.40879822 0.40879822 0.9280777 0.7292023q0.5303345 0.3093567 1.1490479 0.4861374q0.618721 0.17677307 1.2705841 0.18782806q0.67396545 0.011047363 1.370018 -0.24307251l0.37565613 1.1932449q-0.762352 0.29830933 -1.5909958 0.28726196q-0.8175888 0 -1.6241302 -0.23201752q-0.7955017 -0.22097015 -1.5136566 -0.6518631q-0.7070999 -0.41984558 -1.2595291 -0.9722748q-0.98332214 -0.98332214 -1.370018 -2.231804q-0.3867035 -1.2484894 -0.29831696 -2.5301208q0.11048889 -1.2816315 0.6518707 -2.4859238q0.56346893 -1.2042847 1.4804993 -2.1213188zm7.5203705 17.464062q-0.762352 -0.762352 -1.1159058 -1.6904297q-0.34249878 -0.91703033 -0.3093567 -1.8782501q0.03314209 -0.9612274 0.41984558 -1.8782578q0.40879822 -0.9170227 1.1380005 -1.6462326q0.74024963 -0.74024963 1.65728 -1.1269455q0.9280777 -0.39775085 1.8892975 -0.43089294q0.9612274 -0.03314972 1.8782578 0.3093567q0.93912506 0.3425064 1.690422 1.0938034q0.7513046 0.7513046 1.093811 1.6904297q0.35355377 0.9280777 0.32040405 1.8892975q-0.03314209 0.9612274 -0.4419403 1.8782578q-0.38669586 0.9170227 -1.1269531 1.65728q-0.7292023 0.7292023 -1.65728 1.1269531q-0.905983 0.39774323 -1.8672028 0.43089294q-0.9612274 0.03314209 -1.8893051 -0.32041168q-0.9280777 -0.35355377 -1.6793747 -1.1048508zm1.0717087 -6.1319427q-0.59661865 0.59661865 -0.91703033 1.2926788q-0.29830933 0.6960602 -0.3425064 1.4252625q-0.03314209 0.7181549 0.20992279 1.4031601q0.25411987 0.67396545 0.77339935 1.1932449q0.5303345 0.5303345 1.2042923 0.762352q0.6850128 0.24306488 1.4142151 0.22097015q0.74024963 -0.03314209 1.4473572 -0.3425064q0.7181549 -0.32040405 1.3037262 -0.905983q0.5745239 -0.5745239 0.8949356 -1.2926788q0.32040405 -0.7181549 0.3425064 -1.4473572q0.03314209 -0.74024963 -0.19887543 -1.4142151q-0.22097015 -0.6850052 -0.7513046 -1.2153397q-0.5192795 -0.5192795 -1.2153397 -0.751297q-0.6850052 -0.24307251 -1.4142151 -0.19887543q-0.7292023 0.044197083 -1.4473572 0.36460114q-0.7181549 0.32041168 -1.3037262 0.905983zm9.77166 16.710144l-0.905983 -0.905983l3.9111862 -3.9111862q1.2484894 -1.2484818 1.4473572 -2.1765594q0.19887543 -0.9280777 -0.56347656 -1.6904297q-0.4087906 -0.4087906 -0.97226715 -0.66291046q-0.54138184 -0.25411224 -1.1600952 -0.3425064q-0.60767365 -0.07733917 -1.2484894 0.03314972q-0.618721 0.11048126 -1.1932449 0.39774323l-4.2868347 4.2868347l-0.90597534 -0.90597534l7.004776 -7.004776l0.82863617 0.82863617l-1.5909882 1.5909882q0.59661865 -0.15467834 1.2153397 -0.15467834q0.64081573 0 1.2595367 0.15467834q0.6187134 0.15468597 1.1600952 0.47509003q0.56347656 0.32041168 1.038559 0.7954941q0.5855789 0.5855713 0.77339935 1.1932449q0.18782806 0.607666 0.03314972 1.2484818q-0.14363098 0.6297684 -0.60767365 1.2926865q-0.45298767 0.6739578 -1.1380005 1.3589706l-4.0990067 4.0990067zm3.981079 4.2462463q-0.8286438 -0.8286438 -1.3479233 -1.8782578q-0.5082321 -1.038559 -0.5524292 -2.121315l1.0385666 -0.19887543q0.0994339 1.0717087 0.46403503 1.9224472q0.37565613 0.8617859 1.0717087 1.5578461q0.8507385 0.8507385 1.6904297 1.0054169q0.8507385 0.16572571 1.4805069 -0.46404266q0.29830933 -0.29830933 0.35355377 -0.6187134q0.06629181 -0.33145905 -0.055244446 -0.74025726q-0.11048889 -0.41984558 -0.39775085 -0.9280777q-0.2651596 -0.5082321 -0.6739578 -1.1600952q-0.45298767 -0.74024963 -0.762352 -1.3368759q-0.28726196 -0.59661865 -0.38669586 -1.0717087q-0.0994339 -0.4750824 0.03314209 -0.894928q0.13258362 -0.41984558 0.54138184 -0.8286438q0.53032684 -0.53032684 1.1380005 -0.7181549q0.618721 -0.19887543 1.226387 -0.0994339q0.6297684 0.0994339 1.2374344 0.4419403q0.60767365 0.3425064 1.1490479 0.8838806q0.8065491 0.8065491 1.1932449 1.7235718q0.40879822 0.91703033 0.3756485 1.7456741l-0.97226715 0.088386536q0.011047363 -0.7844467 -0.35355377 -1.5467987q-0.35355377 -0.751297 -0.9612274 -1.3589706q-0.36460114 -0.36460114 -0.751297 -0.59661865q-0.3756485 -0.24306488 -0.77339935 -0.3093567q-0.38669586 -0.07733917 -0.7844467 0.03314209q-0.3756485 0.11048889 -0.70710754 0.4419403q-0.28726196 0.28726196 -0.36460114 0.56347656q-0.07733917 0.2762146 0 0.618721q0.088386536 0.33145142 0.32041168 0.762352q0.23201752 0.43089294 0.59661865 1.0164642q0.5082321 0.8175888 0.8507385 1.4915543q0.36460114 0.6739578 0.4861374 1.2374344q0.13257599 0.5524292 -0.011054993 1.0275116q-0.13257599 0.4861374 -0.5745239 0.9280777q-0.97226715 0.9722748 -2.2759933 0.7954941q-1.2926865 -0.16572571 -2.5411682 -1.4142075zm7.9160385 6.987961q-0.11048889 -0.044197083 -0.33145905 -0.13258362q-0.22097015 -0.088386536 -0.5082321 -0.22097015q-0.2651596 -0.13258362 -0.56347656 -0.3425064q-0.3093567 -0.19887543 -0.5855713 -0.47509003q-0.29830933 -0.29830933 -0.49718475 -0.6518631q-0.18782043 -0.3425064 -0.22097015 -0.70710754q-0.022094727 -0.3756485 0.11048889 -0.751297q0.13258362 -0.3756485 0.46403503 -0.70710754l5.016037 -5.016037l-0.97226715 -0.97226715l0.7292099 -0.7292023l0.97226715 0.9722595l2.3643875 -2.3643875l0.91703033 0.91703033l-2.3643951 2.3643875l1.6130905 1.6130905l-0.7292023 0.7292023l-1.6130905 -1.6130905l-4.761917 4.7619247q-0.36460876 0.40879822 -0.30936432 0.83969116q0.06629181 0.41984558 0.39775085 0.751297q0.39774323 0.39775085 0.80654144 0.56347656q0.43089294 0.16573334 0.56347656 0.18782806l-0.49718475 0.98332214zm10.356995 -1.3765564q-0.9612198 -0.8949356 -2.13237 -1.093811q-1.1600952 -0.20992279 -2.2980957 0.35355377l-4.3531265 4.3531265l-0.905983 -0.905983l7.004776 -7.004776l0.8617935 0.8617859l-1.6793823 1.6793823q1.082756 -0.3756485 2.1544647 -0.2762146q1.093811 0.0994339 1.7788162 0.7844467q0.121536255 0.121536255 0.23201752 0.23201752q0.11048889 0.11048889 0.16573334 0.18782806l-0.8286438 0.8286438zm-3.026268 9.635361q-1.1048508 -1.1048508 -0.9170227 -2.419632q0.1988678 -1.3258209 1.7014694 -2.8284225l4.121109 -4.121109l0.905983 0.905983l-3.9553833 3.9553757q-2.3754349 2.3754349 -0.74024963 4.01062q0.39775085 0.39775085 0.91703033 0.6518631q0.53032684 0.26516724 1.1048508 0.33145905q0.5855789 0.07733917 1.2042923 -0.011047363q0.618721 -0.088386536 1.2153397 -0.3756485l4.408371 -4.408371l0.9170227 0.91703033l-5.822571 5.8225784q-0.37565613 0.3756485 -0.044204712 0.70710754l-0.80654144 0.80654144q-0.3093567 -0.22097015 -0.41983795 -0.33145142q-0.30936432 -0.30936432 -0.3425064 -0.7181549q-0.03314972 -0.40879822 0.25411224 -0.6960602l0.9612274 -0.9612274q-1.2816315 0.35355377 -2.5190735 0.022102356q-1.226387 -0.3425064 -2.1434174 -1.2595367zm8.863541 1.549408q0.7292023 -0.7292023 1.6462402 -1.1380005q0.92807007 -0.39774323 1.8782501 -0.41984558q0.95018005 -0.022094727 1.8672028 0.3425064q0.9280853 0.35355377 1.7125244 1.1380005q0.9943695 0.9943695 1.2816315 2.1876144q0.29830933 1.18219 -0.088394165 2.3201904l-1.18219 -0.607666q0.25411987 -0.8286438 0.022094727 -1.6572876q-0.20991516 -0.82863617 -0.8617859 -1.4804993q-0.5303192 -0.5303345 -1.215332 -0.77339935q-0.67396545 -0.25411987 -1.3921204 -0.22097015q-0.70710754 0.022094727 -1.4252625 0.3425064q-0.6960602 0.32040405 -1.2926788 0.9170227q-0.59661865 0.5966263 -0.92807007 1.3258286q-0.3204193 0.7181549 -0.36460876 1.4473572q-0.022094727 0.7292023 0.22097778 1.4142151q0.24305725 0.6850128 0.7733917 1.2153397q0.33145142 0.33145905 0.751297 0.5745239q0.43089294 0.23201752 0.87283325 0.3425064q0.45298767 0.121536255 0.8617859 0.11048126q0.41984558 -0.022094727 0.7402649 -0.18782043l0.62976074 1.1600952q-0.5303345 0.22097015 -1.1380005 0.25411987q-0.5855713 0.03314209 -1.2153473 -0.11048889q-0.607666 -0.14363098 -1.1932373 -0.4861374q-0.59661865 -0.33145142 -1.093811 -0.82863617q-0.76234436 -0.762352 -1.1269379 -1.701477q-0.3535614 -0.9280777 -0.33146667 -1.9003525q0.044204712 -0.97226715 0.43089294 -1.8892975q0.39775085 -0.9280777 1.1600952 -1.6904297zm7.9074554 14.29351q-0.11047363 -0.044189453 -0.33145142 -0.13257599q-0.22096252 -0.088394165 -0.5082245 -0.22097015q-0.26516724 -0.13258362 -0.56347656 -0.3425064q-0.30937195 -0.19887543 -0.58558655 -0.47509003q-0.29830933 -0.29830933 -0.49717712 -0.6518631q-0.18782043 -0.3425064 -0.22097778 -0.70710754q-0.022094727 -0.3756485 0.11048889 -0.751297q0.13258362 -0.37565613 0.46403503 -0.70710754l5.0160522 -5.0160446l-0.9722748 -0.97226715l0.7292023 -0.7292023l0.9722748 0.97226715l2.36438 -2.3643875l0.91703796 0.91703033l-2.3643951 2.3643875l1.6130829 1.6130905l-0.7292023 0.7292023l-1.6130829 -1.6130905l-4.761917 4.7619247q-0.36460876 0.40879822 -0.30937195 0.83969116q0.06629944 0.41984558 0.39775085 0.751297q0.39775085 0.39775085 0.8065491 0.56347656q0.43089294 0.16572571 0.56347656 0.18782806l-0.49719238 0.9833145zm0.6674347 1.3303375l7.004776 -7.004776l0.90597534 0.905983l-7.004776 7.0047684l-0.90597534 -0.90597534zm8.463181 -8.463181l1.3479156 -1.3479233l0.9059906 0.905983l-1.3479309 1.3479156l-0.90597534 -0.90597534zm-2.7564392 14.435089q-0.76234436 -0.76234436 -1.1159058 -1.6904297q-0.34249878 -0.9170227 -0.3093567 -1.8782501q0.03314209 -0.9612274 0.41984558 -1.8782501q0.40879822 -0.9170227 1.1380005 -1.6462326q0.74024963 -0.74024963 1.6572723 -1.1269531q0.9280853 -0.39774323 1.8893127 -0.43089294q0.96121216 -0.03314209 1.8782501 0.30936432q0.93911743 0.34249878 1.6904297 1.0938034q0.751297 0.7513046 1.0937958 1.690422q0.3535614 0.9280853 0.32040405 1.8893127q-0.03314209 0.96121216 -0.4419403 1.8782501q-0.38668823 0.9170227 -1.1269379 1.6572723q-0.7292175 0.7292023 -1.6572876 1.1269531q-0.90597534 0.39775085 -1.8672028 0.43089294q-0.9612274 0.03314209 -1.8892975 -0.32040405q-0.9280853 -0.3535614 -1.6793823 -1.1048584zm1.071701 -6.1319427q-0.59661865 0.59661865 -0.9170227 1.2926788q-0.29830933 0.6960602 -0.34249878 1.4252625q-0.03315735 0.7181549 0.20991516 1.4031677q0.25411987 0.67396545 0.7733917 1.1932373q0.5303345 0.5303345 1.2042999 0.7623596q0.6850128 0.24307251 1.4142151 0.22096252q0.74024963 -0.03314209 1.4473572 -0.34249878q0.7181549 -0.32040405 1.3037262 -0.90597534q0.5745239 -0.5745239 0.894928 -1.2926788q0.3204193 -0.7181549 0.34251404 -1.4473724q0.03314209 -0.74024963 -0.19888306 -1.4141998q-0.22096252 -0.6850128 -0.751297 -1.2153473q-0.5192871 -0.5192795 -1.215332 -0.751297q-0.6850128 -0.24307251 -1.4142151 -0.19887543q-0.7292023 0.044189453 -1.4473724 0.36460114q-0.7181549 0.32040405 -1.3037262 0.90597534zm9.7716675 16.710144l-0.90597534 -0.90597534l3.9111786 -3.9111786q1.2484894 -1.2484894 1.4473572 -2.1765747q0.1988678 -0.92807007 -0.56347656 -1.6904144q-0.40879822 -0.40879822 -0.9722748 -0.6629181q-0.54138184 -0.25411987 -1.1600952 -0.34249878q-0.607666 -0.0773468 -1.2484894 0.03314209q-0.6187134 0.11048889 -1.1932373 0.39775085l-4.2868347 4.2868347l-0.90597534 -0.9059906l7.004776 -7.004776l0.8286438 0.8286438l-1.5910034 1.5909882q0.5966339 -0.15467834 1.2153473 -0.15467834q0.6408081 0 1.2595367 0.15467834q0.6187134 0.15467834 1.1600952 0.4750824q0.56347656 0.3204193 1.038559 0.7955017q0.5855713 0.5855713 0.773407 1.1932373q0.18782043 0.6076813 0.03314209 1.2484894q-0.14363098 0.629776 -0.607666 1.2926788q-0.45300293 0.67396545 -1.1380005 1.3589783l-4.0990143 4.098999zm5.019638 -1.1012421l6.573883 -6.573883l0.91703796 0.9170227l-6.573883 6.573883l-0.91703796 -0.9170227zm-3.06044 3.06044l1.502594 -1.502594l0.91703796 0.9170227l-1.5026093 1.5026093l-0.9170227 -0.91703796z" fill-rule="nonzero"></path></g></svg>

