<?xml version="1.0" encoding="UTF-8" standalone="no"?>
<!-- Generator: Adobe Illustrator 12.0.1, SVG Export Plug-In . SVG Version: 6.00 Build 51448)  -->

<svg
   xmlns:dc="http://purl.org/dc/elements/1.1/"
   xmlns:cc="http://creativecommons.org/ns#"
   xmlns:rdf="http://www.w3.org/1999/02/22-rdf-syntax-ns#"
   xmlns:svg="http://www.w3.org/2000/svg"
   xmlns="http://www.w3.org/2000/svg"
   xmlns:sodipodi="http://sodipodi.sourceforge.net/DTD/sodipodi-0.dtd"
   xmlns:inkscape="http://www.inkscape.org/namespaces/inkscape"
   version="1.1"
   id="Layer_1"
   width="300.005"
   height="64.219002"
   viewBox="0 0 300.005 64.219001"
   overflow="visible"
   enable-background="new 0 0 300.005 60.469"
   xml:space="preserve"
   inkscape:version="0.48.5 r10040"
   sodipodi:docname="bloomberg-white.svg"
   style="overflow:visible"><metadata
     id="metadata25"><rdf:RDF><cc:Work
         rdf:about=""><dc:format>image/svg+xml</dc:format><dc:type
           rdf:resource="http://purl.org/dc/dcmitype/StillImage" /><dc:title /></cc:Work></rdf:RDF></metadata><defs
     id="defs23" /><sodipodi:namedview
     pagecolor="#ffffff"
     bordercolor="#666666"
     borderopacity="1"
     objecttolerance="10"
     gridtolerance="10"
     guidetolerance="10"
     inkscape:pageopacity="0"
     inkscape:pageshadow="2"
     inkscape:window-width="1440"
     inkscape:window-height="851"
     id="namedview21"
     showgrid="false"
     inkscape:zoom="3.126116"
     inkscape:cx="150.0025"
     inkscape:cy="21.790723"
     inkscape:window-x="0"
     inkscape:window-y="0"
     inkscape:window-maximized="1"
     inkscape:current-layer="Layer_1"
     fit-margin-top="0"
     fit-margin-left="0"
     fit-margin-right="0"
     fit-margin-bottom="0" /><path
     d="m 7.8969965,11.563008 h 6.5200005 c 5.959,0 8.585,1.883 8.585,5.708 0,3.324 -2.626,5.581 -7.897,5.581 H 7.8969965 v -11.289 z M -3.4855608e-6,49.173004 H 15.979997 c 8.398,0 16.796,-3 16.796,-12.656996 0,-5.708 -4.002,-10.09 -9.579,-10.724 v -0.132 c 4.563,-1.367 7.71,-4.69 7.71,-9.706 0,-8.0879999 -6.903,-11.1569999 -13.61,-11.1569999 H -3.4855608e-6 V 49.173004 z M 7.8969965,29.618008 h 7.5820005 c 6.392,0 9.411,1.632 9.411,6.274 0,5.820996 -5.654,6.514996 -9.726,6.514996 H 7.8969965 V 29.618008 z"
     id="path3"
     inkscape:connector-curvature="0"
     style="fill:#ffffff" /><line
     stroke-miterlimit="10"
     x1="41.706001"
     y1="49.173004"
     x2="41.706001"
     y2="3.75"
     id="line5"
     style="fill:#ffffff;stroke:#ffffff;stroke-width:7.5;stroke-miterlimit:10;stroke-opacity:1" /><path
     d="m 58.010997,34.132008 c 0,-4.701 3.324,-9.022 8.841,-9.022 5.517,0 8.831,4.322 8.831,9.022 0,4.7 -3.314,9.022996 -8.831,9.022996 -5.518,0 -8.841,-4.321996 -8.841,-9.022996 m -7.523,0 c 0,9.464996 7.267,15.788996 16.364,15.788996 9.086,0 16.364,-6.323 16.364,-15.788996 0,-9.466 -7.277,-15.798 -16.364,-15.798 -9.097,-0.001 -16.364,6.333 -16.364,15.798"
     id="path7"
     inkscape:connector-curvature="0"
     style="fill:#ffffff" /><path
     d="m 94.130997,34.132008 c 0,-4.701 3.324,-9.022 8.841003,-9.022 5.517,0 8.831,4.322 8.831,9.022 0,4.7 -3.314,9.022996 -8.831,9.022996 -5.517003,0 -8.841003,-4.321996 -8.841003,-9.022996 m -7.523,0 c 0,9.464996 7.268,15.788996 16.364003,15.788996 9.086,0 16.364,-6.323 16.364,-15.788996 0,-9.466 -7.277,-15.798 -16.364,-15.798 -9.097003,-0.001 -16.364003,6.333 -16.364003,15.798"
     id="path9"
     inkscape:connector-curvature="0"
     style="fill:#ffffff" /><path
     d="m 123.918,19.086008 h 7.149 v 4.706 h 0.118 c 1.318,-2.822 4.199,-5.463 9.214,-5.463 4.642,0 7.848,1.814 9.411,5.581 2.193,-3.816 5.389,-5.581 9.893,-5.581 8.024,0 10.848,5.713 10.848,12.922 v 17.922996 h -7.523 V 32.126008 c 0,-3.757 -1.121,-7.017 -5.576,-7.017 -4.7,0 -6.461,3.884 -6.461,7.764 v 16.299996 h -7.513 V 31.250008 c 0,-3.708 -1.505,-6.141 -5.143,-6.141 -4.947,0 -6.894,3.624 -6.894,7.641 v 16.422996 h -7.523 V 19.086008 z"
     id="path11"
     inkscape:connector-curvature="0"
     style="fill:#ffffff" /><path
     d="m 201.597,34.132008 c 0,4.706 -3.314,9.022996 -8.841,9.022996 -5.518,0 -8.841,-4.316996 -8.841,-9.022996 0,-4.701 3.323,-9.033 8.841,-9.033 5.527,0 8.841,4.332 8.841,9.033 m -24.949,15.040996 h 7.149 v -4.51 h 0.118 c 2.202,3.624 6.146,5.257 10.354,5.257 9.264,0 14.85,-6.894 14.85,-15.788996 0,-8.9 -5.959,-15.798 -14.544,-15.798 -5.636,0 -8.654,2.626 -10.218,4.583 H 184.17 V 3.7500081 h -7.523 V 49.173004 z"
     id="path13"
     inkscape:connector-curvature="0"
     style="fill:#ffffff" /><path
     d="m 220.045,31.123008 c 0.561,-4.332 3.324,-7.149 7.769,-7.149 4.701,0 7.582,2.759 7.651,7.149 h -15.42 z m 22.943,5.64 v -2.065 c 0,-10.473 -5.703,-16.364 -14.102,-16.364 -9.106,0 -16.364,6.333 -16.364,15.798 0,9.464996 7.258,15.788996 16.364,15.788996 4.75,0 9.214,-1.691 12.715,-6.009 l -5.389,-4.065996 c -1.878,2.306996 -4.327,4.065996 -8.084,4.065996 -4.198,0 -7.592,-2.699 -8.083,-7.148996 h 22.943 z"
     id="path15"
     inkscape:connector-curvature="0"
     style="fill:#ffffff" /><path
     d="m 247.885,19.086008 h 7.523 v 4.765 h 0.128 c 1.632,-3.447 4.946,-5.522 8.899,-5.522 0.944,0 1.819,0.192 2.694,0.447 v 7.268 c -1.249,-0.31 -2.448,-0.561 -3.639,-0.561 -7.08,0 -8.083,5.959 -8.083,7.592 v 16.098996 h -7.523 V 19.086008 z"
     id="path17"
     inkscape:connector-curvature="0"
     style="fill:#ffffff" /><path
     d="m 283.957,25.109008 c 5.448,0 8.899,3.624 8.899,8.84 0,5.006 -3.383,8.830996 -8.959,8.830996 -5.074,0 -8.841,-3.947996 -8.841,-8.712996 0,-5.334 3.629,-8.958 8.901,-8.958 m 8.899,-6.023 v 4.514 h -0.118 c -2.202,-3.639 -6.155,-5.271 -10.354,-5.271 -9.273,0 -14.85,6.898 -14.85,15.803 0,8.515996 5.959,15.414996 14.978,15.414996 3.766,0 7.65,-1.436 9.854,-4.381 h 0.107 v 2.198 c 0,5.949 -2.242,10.09 -9.519,10.09 -4.199,0 -7.337,-1.574 -10.346,-4.347 l -4.504,6.155 c 4.248,3.776 9.332,4.957 14.918,4.957 11.723,0 16.983,-6.903 16.983,-17.741 V 19.086008 h -7.149 z"
     id="path19"
     inkscape:connector-curvature="0"
     style="fill:#ffffff" /></svg>